<svg xmlns="http://www.w3.org/2000/svg" width="70" height="70" viewBox="0 0 70 70">
  <g id="Group_42" data-name="Group 42" transform="translate(-0.265 0.347)">
    <g id="Ellipse_2" data-name="Ellipse 2" transform="translate(0.265 -0.347)" fill="rgba(255,255,255,0.35)" stroke="#888383" stroke-linecap="round" stroke-width="7">
      <circle cx="35" cy="35" r="35" stroke="none"/>
      <circle cx="35" cy="35" r="31.5" fill="none"/>
    </g>
    <path id="Icon_ionic-ios-settings" data-name="Icon ionic-ios-settings" d="M32.909,19.978a3.984,3.984,0,0,1,2.556-3.716,15.788,15.788,0,0,0-1.911-4.6,4.039,4.039,0,0,1-1.621.347A3.975,3.975,0,0,1,28.3,6.411,15.749,15.749,0,0,0,23.7,4.5a3.982,3.982,0,0,1-7.435,0,15.8,15.8,0,0,0-4.6,1.911,3.975,3.975,0,0,1-3.637,5.595A3.907,3.907,0,0,1,6.4,11.659,16.137,16.137,0,0,0,4.5,16.27,3.982,3.982,0,0,1,4.508,23.7a15.788,15.788,0,0,0,1.911,4.6,3.977,3.977,0,0,1,5.25,5.248,15.888,15.888,0,0,0,4.6,1.911,3.974,3.974,0,0,1,7.419,0,15.8,15.8,0,0,0,4.6-1.911,3.981,3.981,0,0,1,5.25-5.248,15.88,15.88,0,0,0,1.911-4.6A4,4,0,0,1,32.909,19.978ZM20.055,26.42a6.449,6.449,0,1,1,6.451-6.449A6.448,6.448,0,0,1,20.055,26.42Z" transform="translate(15.283 14.671)" fill="#888383"/>
  </g>
</svg>
