<svg xmlns="http://www.w3.org/2000/svg" width="790" height="65.625" viewBox="0 0 790 65.625">
  <g id="Group_45" data-name="Group 45" transform="translate(-2000 -6709.875)">
    <path id="Icon_awesome-cat" data-name="Icon awesome-cat" d="M39.729,24.125A26.262,26.262,0,0,0,17.5,35.876V24.125A13.139,13.139,0,0,0,4.375,11a4.375,4.375,0,0,0,0,8.75A4.381,4.381,0,0,1,8.75,24.125v35a8.758,8.758,0,0,0,8.75,8.75H41.563a2.187,2.187,0,0,0,2.188-2.187V63.5a4.376,4.376,0,0,0-4.375-4.375H35L52.5,46V65.688a2.187,2.187,0,0,0,2.188,2.187h4.375a2.187,2.187,0,0,0,2.188-2.187V37.5a17.326,17.326,0,0,1-4.375.621A17.528,17.528,0,0,1,39.729,24.125ZM61.25,11H52.5L43.75,2.25V20.625a13.125,13.125,0,1,0,26.25,0V2.25ZM51.406,21.937a2.187,2.187,0,1,1,2.187-2.187A2.187,2.187,0,0,1,51.406,21.937Zm10.938,0a2.187,2.187,0,1,1,2.187-2.187A2.187,2.187,0,0,1,62.344,21.937Z" transform="translate(2000 6707.625)" fill="#3c4a58"/>
    <path id="Icon_awesome-cat-2" data-name="Icon awesome-cat" d="M39.729,24.125A26.262,26.262,0,0,0,17.5,35.876V24.125A13.139,13.139,0,0,0,4.375,11a4.375,4.375,0,0,0,0,8.75A4.381,4.381,0,0,1,8.75,24.125v35a8.758,8.758,0,0,0,8.75,8.75H41.563a2.187,2.187,0,0,0,2.188-2.187V63.5a4.376,4.376,0,0,0-4.375-4.375H35L52.5,46V65.688a2.187,2.187,0,0,0,2.188,2.187h4.375a2.187,2.187,0,0,0,2.188-2.187V37.5a17.326,17.326,0,0,1-4.375.621A17.528,17.528,0,0,1,39.729,24.125ZM61.25,11H52.5L43.75,2.25V20.625a13.125,13.125,0,1,0,26.25,0V2.25ZM51.406,21.937a2.187,2.187,0,1,1,2.187-2.187A2.187,2.187,0,0,1,51.406,21.937Zm10.938,0a2.187,2.187,0,1,1,2.187-2.187A2.187,2.187,0,0,1,62.344,21.937Z" transform="translate(2360 6707.625)" fill="#afafaf"/>
    <path id="Icon_awesome-cat-3" data-name="Icon awesome-cat" d="M39.729,24.125A26.262,26.262,0,0,0,17.5,35.876V24.125A13.139,13.139,0,0,0,4.375,11a4.375,4.375,0,0,0,0,8.75A4.381,4.381,0,0,1,8.75,24.125v35a8.758,8.758,0,0,0,8.75,8.75H41.563a2.187,2.187,0,0,0,2.188-2.187V63.5a4.376,4.376,0,0,0-4.375-4.375H35L52.5,46V65.688a2.187,2.187,0,0,0,2.188,2.187h4.375a2.187,2.187,0,0,0,2.188-2.187V37.5a17.326,17.326,0,0,1-4.375.621A17.528,17.528,0,0,1,39.729,24.125ZM61.25,11H52.5L43.75,2.25V20.625a13.125,13.125,0,1,0,26.25,0V2.25ZM51.406,21.937a2.187,2.187,0,1,1,2.187-2.187A2.187,2.187,0,0,1,51.406,21.937Zm10.938,0a2.187,2.187,0,1,1,2.187-2.187A2.187,2.187,0,0,1,62.344,21.937Z" transform="translate(2180 6707.625)" fill="#afafaf"/>
    <path id="Icon_awesome-cat-4" data-name="Icon awesome-cat" d="M39.729,24.125A26.262,26.262,0,0,0,17.5,35.876V24.125A13.139,13.139,0,0,0,4.375,11a4.375,4.375,0,0,0,0,8.75A4.381,4.381,0,0,1,8.75,24.125v35a8.758,8.758,0,0,0,8.75,8.75H41.563a2.187,2.187,0,0,0,2.188-2.187V63.5a4.376,4.376,0,0,0-4.375-4.375H35L52.5,46V65.688a2.187,2.187,0,0,0,2.188,2.187h4.375a2.187,2.187,0,0,0,2.188-2.187V37.5a17.326,17.326,0,0,1-4.375.621A17.528,17.528,0,0,1,39.729,24.125ZM61.25,11H52.5L43.75,2.25V20.625a13.125,13.125,0,1,0,26.25,0V2.25ZM51.406,21.937a2.187,2.187,0,1,1,2.187-2.187A2.187,2.187,0,0,1,51.406,21.937Zm10.938,0a2.187,2.187,0,1,1,2.187-2.187A2.187,2.187,0,0,1,62.344,21.937Z" transform="translate(2540 6707.625)" fill="#afafaf"/>
    <path id="Icon_awesome-cat-5" data-name="Icon awesome-cat" d="M39.729,24.125A26.262,26.262,0,0,0,17.5,35.876V24.125A13.139,13.139,0,0,0,4.375,11a4.375,4.375,0,0,0,0,8.75A4.381,4.381,0,0,1,8.75,24.125v35a8.758,8.758,0,0,0,8.75,8.75H41.563a2.187,2.187,0,0,0,2.188-2.187V63.5a4.376,4.376,0,0,0-4.375-4.375H35L52.5,46V65.688a2.187,2.187,0,0,0,2.188,2.187h4.375a2.187,2.187,0,0,0,2.188-2.187V37.5a17.326,17.326,0,0,1-4.375.621A17.528,17.528,0,0,1,39.729,24.125ZM61.25,11H52.5L43.75,2.25V20.625a13.125,13.125,0,1,0,26.25,0V2.25ZM51.406,21.937a2.187,2.187,0,1,1,2.187-2.187A2.187,2.187,0,0,1,51.406,21.937Zm10.938,0a2.187,2.187,0,1,1,2.187-2.187A2.187,2.187,0,0,1,62.344,21.937Z" transform="translate(2090 6707.625)" fill="#3c4a58"/>
    <path id="Icon_awesome-cat-6" data-name="Icon awesome-cat" d="M39.729,24.125A26.262,26.262,0,0,0,17.5,35.876V24.125A13.139,13.139,0,0,0,4.375,11a4.375,4.375,0,0,0,0,8.75A4.381,4.381,0,0,1,8.75,24.125v35a8.758,8.758,0,0,0,8.75,8.75H41.563a2.187,2.187,0,0,0,2.188-2.187V63.5a4.376,4.376,0,0,0-4.375-4.375H35L52.5,46V65.688a2.187,2.187,0,0,0,2.188,2.187h4.375a2.187,2.187,0,0,0,2.188-2.187V37.5a17.326,17.326,0,0,1-4.375.621A17.528,17.528,0,0,1,39.729,24.125ZM61.25,11H52.5L43.75,2.25V20.625a13.125,13.125,0,1,0,26.25,0V2.25ZM51.406,21.937a2.187,2.187,0,1,1,2.187-2.187A2.187,2.187,0,0,1,51.406,21.937Zm10.938,0a2.187,2.187,0,1,1,2.187-2.187A2.187,2.187,0,0,1,62.344,21.937Z" transform="translate(2450 6707.625)" fill="#afafaf"/>
    <path id="Icon_awesome-cat-7" data-name="Icon awesome-cat" d="M39.729,24.125A26.262,26.262,0,0,0,17.5,35.876V24.125A13.139,13.139,0,0,0,4.375,11a4.375,4.375,0,0,0,0,8.75A4.381,4.381,0,0,1,8.75,24.125v35a8.758,8.758,0,0,0,8.75,8.75H41.563a2.187,2.187,0,0,0,2.188-2.187V63.5a4.376,4.376,0,0,0-4.375-4.375H35L52.5,46V65.688a2.187,2.187,0,0,0,2.188,2.187h4.375a2.187,2.187,0,0,0,2.188-2.187V37.5a17.326,17.326,0,0,1-4.375.621A17.528,17.528,0,0,1,39.729,24.125ZM61.25,11H52.5L43.75,2.25V20.625a13.125,13.125,0,1,0,26.25,0V2.25ZM51.406,21.937a2.187,2.187,0,1,1,2.187-2.187A2.187,2.187,0,0,1,51.406,21.937Zm10.938,0a2.187,2.187,0,1,1,2.187-2.187A2.187,2.187,0,0,1,62.344,21.937Z" transform="translate(2270 6707.625)" fill="#afafaf"/>
    <path id="Icon_awesome-cat-8" data-name="Icon awesome-cat" d="M39.729,24.125A26.262,26.262,0,0,0,17.5,35.876V24.125A13.139,13.139,0,0,0,4.375,11a4.375,4.375,0,0,0,0,8.75A4.381,4.381,0,0,1,8.75,24.125v35a8.758,8.758,0,0,0,8.75,8.75H41.563a2.187,2.187,0,0,0,2.188-2.187V63.5a4.376,4.376,0,0,0-4.375-4.375H35L52.5,46V65.688a2.187,2.187,0,0,0,2.188,2.187h4.375a2.187,2.187,0,0,0,2.188-2.187V37.5a17.326,17.326,0,0,1-4.375.621A17.528,17.528,0,0,1,39.729,24.125ZM61.25,11H52.5L43.75,2.25V20.625a13.125,13.125,0,1,0,26.25,0V2.25ZM51.406,21.937a2.187,2.187,0,1,1,2.187-2.187A2.187,2.187,0,0,1,51.406,21.937Zm10.938,0a2.187,2.187,0,1,1,2.187-2.187A2.187,2.187,0,0,1,62.344,21.937Z" transform="translate(2630 6707.625)" fill="#afafaf"/>
    <path id="Icon_awesome-cat-9" data-name="Icon awesome-cat" d="M39.729,24.125A26.262,26.262,0,0,0,17.5,35.876V24.125A13.139,13.139,0,0,0,4.375,11a4.375,4.375,0,0,0,0,8.75A4.381,4.381,0,0,1,8.75,24.125v35a8.758,8.758,0,0,0,8.75,8.75H41.563a2.187,2.187,0,0,0,2.188-2.187V63.5a4.376,4.376,0,0,0-4.375-4.375H35L52.5,46V65.688a2.187,2.187,0,0,0,2.188,2.187h4.375a2.187,2.187,0,0,0,2.188-2.187V37.5a17.326,17.326,0,0,1-4.375.621A17.528,17.528,0,0,1,39.729,24.125ZM61.25,11H52.5L43.75,2.25V20.625a13.125,13.125,0,1,0,26.25,0V2.25ZM51.406,21.937a2.187,2.187,0,1,1,2.187-2.187A2.187,2.187,0,0,1,51.406,21.937Zm10.938,0a2.187,2.187,0,1,1,2.187-2.187A2.187,2.187,0,0,1,62.344,21.937Z" transform="translate(2720 6707.625)" fill="#afafaf"/>
  </g>
</svg>
